<mxfile host="app.diagrams.net" modified="2021-06-09T09:51:31.282Z" agent="5.0 (X11; Linux x86_64) AppleWebKit/537.36 (KHTML, like Gecko) Chrome/89.0.4389.90 Safari/537.36" etag="o7akVvQ7cdpO0vEYQWT8" version="14.7.6" type="github" pages="3">
  <diagram id="prtHgNgQTEPvFCAcTncT" name="Page-1">
    <mxGraphModel dx="1946" dy="644" grid="1" gridSize="10" guides="0" tooltips="1" connect="1" arrows="1" fold="1" page="1" pageScale="1" pageWidth="827" pageHeight="1169" math="0" shadow="0">
      <root>
        <mxCell id="0" />
        <mxCell id="1" parent="0" />
        <mxCell id="N2iKn8VOF-II6vIwSYb8-1" value="Phanova AG - Organisationssicht nach ARIS" style="swimlane;html=1;startSize=20;horizontal=1;containerType=tree;glass=0;fillColor=#f8cecc;strokeColor=#330000;" parent="1" vertex="1">
          <mxGeometry x="-580" y="400" width="2350" height="1290" as="geometry" />
        </mxCell>
        <mxCell id="N2iKn8VOF-II6vIwSYb8-38" style="edgeStyle=orthogonalEdgeStyle;rounded=0;orthogonalLoop=1;jettySize=auto;html=1;exitX=0;exitY=0.5;exitDx=0;exitDy=0;" parent="N2iKn8VOF-II6vIwSYb8-1" source="N2iKn8VOF-II6vIwSYb8-9" target="N2iKn8VOF-II6vIwSYb8-36" edge="1">
          <mxGeometry relative="1" as="geometry">
            <mxPoint x="899" y="71.1" as="sourcePoint" />
          </mxGeometry>
        </mxCell>
        <mxCell id="N2iKn8VOF-II6vIwSYb8-40" style="edgeStyle=orthogonalEdgeStyle;rounded=0;orthogonalLoop=1;jettySize=auto;html=1;exitX=1;exitY=0.5;exitDx=0;exitDy=0;" parent="N2iKn8VOF-II6vIwSYb8-1" source="N2iKn8VOF-II6vIwSYb8-9" target="N2iKn8VOF-II6vIwSYb8-32" edge="1">
          <mxGeometry relative="1" as="geometry">
            <mxPoint x="1088.999999999996" y="71.1" as="sourcePoint" />
          </mxGeometry>
        </mxCell>
        <mxCell id="N2iKn8VOF-II6vIwSYb8-144" style="edgeStyle=orthogonalEdgeStyle;rounded=0;orthogonalLoop=1;jettySize=auto;html=1;entryX=0.5;entryY=0;entryDx=0;entryDy=0;" parent="N2iKn8VOF-II6vIwSYb8-1" source="N2iKn8VOF-II6vIwSYb8-9" target="N2iKn8VOF-II6vIwSYb8-34" edge="1">
          <mxGeometry relative="1" as="geometry" />
        </mxCell>
        <mxCell id="N2iKn8VOF-II6vIwSYb8-9" value="Phanova AG" style="ellipse;whiteSpace=wrap;html=1;fillColor=#fff2cc;strokeColor=#d6b656;" parent="N2iKn8VOF-II6vIwSYb8-1" vertex="1">
          <mxGeometry x="1290" y="30" width="190" height="60" as="geometry" />
        </mxCell>
        <mxCell id="N2iKn8VOF-II6vIwSYb8-10" value="" style="endArrow=none;html=1;exitX=0;exitY=1;exitDx=0;exitDy=0;" parent="N2iKn8VOF-II6vIwSYb8-1" edge="1">
          <mxGeometry width="50" height="50" relative="1" as="geometry">
            <mxPoint x="926.4740789495859" y="92.20185032825438" as="sourcePoint" />
            <mxPoint x="927" y="92.1" as="targetPoint" />
          </mxGeometry>
        </mxCell>
        <mxCell id="N2iKn8VOF-II6vIwSYb8-97" style="edgeStyle=orthogonalEdgeStyle;rounded=0;orthogonalLoop=1;jettySize=auto;html=1;entryX=1;entryY=0.5;entryDx=0;entryDy=0;" parent="N2iKn8VOF-II6vIwSYb8-1" source="N2iKn8VOF-II6vIwSYb8-36" target="N2iKn8VOF-II6vIwSYb8-92" edge="1">
          <mxGeometry relative="1" as="geometry" />
        </mxCell>
        <mxCell id="N2iKn8VOF-II6vIwSYb8-104" style="edgeStyle=orthogonalEdgeStyle;rounded=0;orthogonalLoop=1;jettySize=auto;html=1;entryX=1;entryY=0.5;entryDx=0;entryDy=0;exitX=0.5;exitY=1;exitDx=0;exitDy=0;" parent="N2iKn8VOF-II6vIwSYb8-1" source="N2iKn8VOF-II6vIwSYb8-92" target="N2iKn8VOF-II6vIwSYb8-135" edge="1">
          <mxGeometry relative="1" as="geometry">
            <mxPoint x="560" y="451.1" as="targetPoint" />
            <Array as="points">
              <mxPoint x="605" y="451.1" />
            </Array>
          </mxGeometry>
        </mxCell>
        <mxCell id="N2iKn8VOF-II6vIwSYb8-36" value="Management" style="ellipse;whiteSpace=wrap;html=1;fillColor=#fff2cc;strokeColor=#d6b656;" parent="N2iKn8VOF-II6vIwSYb8-1" vertex="1">
          <mxGeometry x="640" y="151.1" width="190" height="60" as="geometry" />
        </mxCell>
        <mxCell id="N2iKn8VOF-II6vIwSYb8-37" value="" style="endArrow=none;html=1;entryX=0;entryY=0;entryDx=0;entryDy=0;exitX=0;exitY=1;exitDx=0;exitDy=0;" parent="N2iKn8VOF-II6vIwSYb8-1" source="N2iKn8VOF-II6vIwSYb8-36" target="N2iKn8VOF-II6vIwSYb8-36" edge="1">
          <mxGeometry width="50" height="50" relative="1" as="geometry">
            <mxPoint x="631" y="-263.9" as="sourcePoint" />
            <mxPoint x="681" y="-313.9" as="targetPoint" />
          </mxGeometry>
        </mxCell>
        <mxCell id="N2iKn8VOF-II6vIwSYb8-32" value="Administration" style="ellipse;whiteSpace=wrap;html=1;fillColor=#fff2cc;strokeColor=#d6b656;" parent="N2iKn8VOF-II6vIwSYb8-1" vertex="1">
          <mxGeometry x="1977" y="151.1" width="190" height="60" as="geometry" />
        </mxCell>
        <mxCell id="N2iKn8VOF-II6vIwSYb8-33" value="" style="endArrow=none;html=1;entryX=0;entryY=0;entryDx=0;entryDy=0;exitX=0;exitY=1;exitDx=0;exitDy=0;" parent="N2iKn8VOF-II6vIwSYb8-1" source="N2iKn8VOF-II6vIwSYb8-32" target="N2iKn8VOF-II6vIwSYb8-32" edge="1">
          <mxGeometry width="50" height="50" relative="1" as="geometry">
            <mxPoint x="990" y="-323.9" as="sourcePoint" />
            <mxPoint x="1040" y="-373.9" as="targetPoint" />
          </mxGeometry>
        </mxCell>
        <mxCell id="N2iKn8VOF-II6vIwSYb8-51" style="edgeStyle=orthogonalEdgeStyle;rounded=0;orthogonalLoop=1;jettySize=auto;html=1;exitX=0.5;exitY=1;exitDx=0;exitDy=0;entryX=0.5;entryY=0;entryDx=0;entryDy=0;" parent="N2iKn8VOF-II6vIwSYb8-1" source="N2iKn8VOF-II6vIwSYb8-34" target="N2iKn8VOF-II6vIwSYb8-46" edge="1">
          <mxGeometry relative="1" as="geometry" />
        </mxCell>
        <mxCell id="N2iKn8VOF-II6vIwSYb8-57" style="edgeStyle=orthogonalEdgeStyle;rounded=0;orthogonalLoop=1;jettySize=auto;html=1;entryX=0.5;entryY=0;entryDx=0;entryDy=0;exitX=1;exitY=0.5;exitDx=0;exitDy=0;" parent="N2iKn8VOF-II6vIwSYb8-1" source="N2iKn8VOF-II6vIwSYb8-46" target="N2iKn8VOF-II6vIwSYb8-54" edge="1">
          <mxGeometry relative="1" as="geometry" />
        </mxCell>
        <mxCell id="N2iKn8VOF-II6vIwSYb8-64" style="edgeStyle=orthogonalEdgeStyle;rounded=0;orthogonalLoop=1;jettySize=auto;html=1;entryX=0.5;entryY=0;entryDx=0;entryDy=0;" parent="N2iKn8VOF-II6vIwSYb8-1" source="N2iKn8VOF-II6vIwSYb8-46" target="N2iKn8VOF-II6vIwSYb8-59" edge="1">
          <mxGeometry relative="1" as="geometry" />
        </mxCell>
        <mxCell id="N2iKn8VOF-II6vIwSYb8-65" style="edgeStyle=orthogonalEdgeStyle;rounded=0;orthogonalLoop=1;jettySize=auto;html=1;entryX=0.5;entryY=0;entryDx=0;entryDy=0;" parent="N2iKn8VOF-II6vIwSYb8-1" source="N2iKn8VOF-II6vIwSYb8-46" target="N2iKn8VOF-II6vIwSYb8-62" edge="1">
          <mxGeometry relative="1" as="geometry" />
        </mxCell>
        <mxCell id="N2iKn8VOF-II6vIwSYb8-69" style="edgeStyle=orthogonalEdgeStyle;rounded=0;orthogonalLoop=1;jettySize=auto;html=1;entryX=0.5;entryY=0;entryDx=0;entryDy=0;exitX=1;exitY=1;exitDx=0;exitDy=0;" parent="N2iKn8VOF-II6vIwSYb8-1" source="N2iKn8VOF-II6vIwSYb8-46" target="N2iKn8VOF-II6vIwSYb8-67" edge="1">
          <mxGeometry relative="1" as="geometry" />
        </mxCell>
        <mxCell id="N2iKn8VOF-II6vIwSYb8-73" style="edgeStyle=orthogonalEdgeStyle;rounded=0;orthogonalLoop=1;jettySize=auto;html=1;entryX=0.5;entryY=0;entryDx=0;entryDy=0;" parent="N2iKn8VOF-II6vIwSYb8-1" source="N2iKn8VOF-II6vIwSYb8-46" target="N2iKn8VOF-II6vIwSYb8-71" edge="1">
          <mxGeometry relative="1" as="geometry" />
        </mxCell>
        <mxCell id="N2iKn8VOF-II6vIwSYb8-91" value="" style="group" parent="N2iKn8VOF-II6vIwSYb8-1" vertex="1" connectable="0">
          <mxGeometry x="510" y="261.1" width="190" height="60" as="geometry" />
        </mxCell>
        <mxCell id="N2iKn8VOF-II6vIwSYb8-92" value="Topmanagement" style="ellipse;whiteSpace=wrap;html=1;fillColor=#fff2cc;strokeColor=#d6b656;" parent="N2iKn8VOF-II6vIwSYb8-91" vertex="1">
          <mxGeometry width="190" height="60" as="geometry" />
        </mxCell>
        <mxCell id="N2iKn8VOF-II6vIwSYb8-93" value="" style="endArrow=none;html=1;entryX=0;entryY=0;entryDx=0;entryDy=0;exitX=0;exitY=1;exitDx=0;exitDy=0;" parent="N2iKn8VOF-II6vIwSYb8-91" source="N2iKn8VOF-II6vIwSYb8-92" target="N2iKn8VOF-II6vIwSYb8-92" edge="1">
          <mxGeometry width="50" height="50" relative="1" as="geometry">
            <mxPoint x="101" y="-465" as="sourcePoint" />
            <mxPoint x="151" y="-515" as="targetPoint" />
          </mxGeometry>
        </mxCell>
        <mxCell id="N2iKn8VOF-II6vIwSYb8-98" style="edgeStyle=orthogonalEdgeStyle;rounded=0;orthogonalLoop=1;jettySize=auto;html=1;entryX=1;entryY=0.5;entryDx=0;entryDy=0;" parent="N2iKn8VOF-II6vIwSYb8-1" source="N2iKn8VOF-II6vIwSYb8-36" target="N2iKn8VOF-II6vIwSYb8-95" edge="1">
          <mxGeometry relative="1" as="geometry">
            <mxPoint x="735" y="391.1" as="targetPoint" />
          </mxGeometry>
        </mxCell>
        <mxCell id="N2iKn8VOF-II6vIwSYb8-46" value="Operatives GeschÃ¤ft" style="ellipse;whiteSpace=wrap;html=1;fillColor=#fff2cc;strokeColor=#d6b656;" parent="N2iKn8VOF-II6vIwSYb8-1" vertex="1">
          <mxGeometry x="980" y="271.1" width="190" height="60" as="geometry" />
        </mxCell>
        <mxCell id="N2iKn8VOF-II6vIwSYb8-47" value="" style="endArrow=none;html=1;entryX=0;entryY=0;entryDx=0;entryDy=0;exitX=0;exitY=1;exitDx=0;exitDy=0;" parent="N2iKn8VOF-II6vIwSYb8-1" source="N2iKn8VOF-II6vIwSYb8-46" target="N2iKn8VOF-II6vIwSYb8-46" edge="1">
          <mxGeometry width="50" height="50" relative="1" as="geometry">
            <mxPoint x="1041" y="-153.9" as="sourcePoint" />
            <mxPoint x="1091" y="-203.9" as="targetPoint" />
          </mxGeometry>
        </mxCell>
        <mxCell id="N2iKn8VOF-II6vIwSYb8-94" value="" style="group" parent="N2iKn8VOF-II6vIwSYb8-1" vertex="1" connectable="0">
          <mxGeometry x="500" y="831.1" width="190" height="60" as="geometry" />
        </mxCell>
        <mxCell id="N2iKn8VOF-II6vIwSYb8-95" value="Mittleres Management" style="ellipse;whiteSpace=wrap;html=1;fillColor=#fff2cc;strokeColor=#d6b656;" parent="N2iKn8VOF-II6vIwSYb8-94" vertex="1">
          <mxGeometry width="190" height="60" as="geometry" />
        </mxCell>
        <mxCell id="N2iKn8VOF-II6vIwSYb8-96" value="" style="endArrow=none;html=1;entryX=0;entryY=0;entryDx=0;entryDy=0;exitX=0;exitY=1;exitDx=0;exitDy=0;" parent="N2iKn8VOF-II6vIwSYb8-94" source="N2iKn8VOF-II6vIwSYb8-95" target="N2iKn8VOF-II6vIwSYb8-95" edge="1">
          <mxGeometry width="50" height="50" relative="1" as="geometry">
            <mxPoint x="101" y="-465" as="sourcePoint" />
            <mxPoint x="151" y="-515" as="targetPoint" />
          </mxGeometry>
        </mxCell>
        <mxCell id="N2iKn8VOF-II6vIwSYb8-135" value="Vorstandsvorsitzender" style="shape=process;whiteSpace=wrap;html=1;backgroundOutline=1;strokeColor=#d6b656;fillColor=#fff2cc;" parent="N2iKn8VOF-II6vIwSYb8-1" vertex="1">
          <mxGeometry x="316" y="421.1" width="194" height="60" as="geometry" />
        </mxCell>
        <mxCell id="N2iKn8VOF-II6vIwSYb8-136" value="Vorstand" style="shape=process;whiteSpace=wrap;html=1;backgroundOutline=1;strokeColor=#d6b656;fillColor=#fff2cc;" parent="N2iKn8VOF-II6vIwSYb8-1" vertex="1">
          <mxGeometry x="316" y="521.1" width="194" height="60" as="geometry" />
        </mxCell>
        <mxCell id="N2iKn8VOF-II6vIwSYb8-137" style="edgeStyle=orthogonalEdgeStyle;rounded=0;orthogonalLoop=1;jettySize=auto;html=1;entryX=1;entryY=0.5;entryDx=0;entryDy=0;" parent="N2iKn8VOF-II6vIwSYb8-1" source="N2iKn8VOF-II6vIwSYb8-92" target="N2iKn8VOF-II6vIwSYb8-136" edge="1">
          <mxGeometry relative="1" as="geometry" />
        </mxCell>
        <mxCell id="N2iKn8VOF-II6vIwSYb8-61" value="" style="group" parent="N2iKn8VOF-II6vIwSYb8-1" vertex="1" connectable="0">
          <mxGeometry x="960" y="460" width="190" height="60" as="geometry" />
        </mxCell>
        <mxCell id="N2iKn8VOF-II6vIwSYb8-62" value="Speciality Medicine 1" style="ellipse;whiteSpace=wrap;html=1;fillColor=#fff2cc;strokeColor=#d6b656;" parent="N2iKn8VOF-II6vIwSYb8-61" vertex="1">
          <mxGeometry width="190" height="60" as="geometry" />
        </mxCell>
        <mxCell id="N2iKn8VOF-II6vIwSYb8-63" value="" style="endArrow=none;html=1;entryX=0;entryY=0;entryDx=0;entryDy=0;exitX=0;exitY=1;exitDx=0;exitDy=0;" parent="N2iKn8VOF-II6vIwSYb8-61" source="N2iKn8VOF-II6vIwSYb8-62" target="N2iKn8VOF-II6vIwSYb8-62" edge="1">
          <mxGeometry width="50" height="50" relative="1" as="geometry">
            <mxPoint x="101" y="-465" as="sourcePoint" />
            <mxPoint x="151" y="-515" as="targetPoint" />
          </mxGeometry>
        </mxCell>
        <mxCell id="N2iKn8VOF-II6vIwSYb8-58" value="" style="group" parent="N2iKn8VOF-II6vIwSYb8-1" vertex="1" connectable="0">
          <mxGeometry x="750" y="460" width="190" height="60" as="geometry" />
        </mxCell>
        <mxCell id="N2iKn8VOF-II6vIwSYb8-59" value="Abteilung Diagnostische Bildgebung" style="ellipse;whiteSpace=wrap;html=1;fillColor=#fff2cc;strokeColor=#d6b656;" parent="N2iKn8VOF-II6vIwSYb8-58" vertex="1">
          <mxGeometry width="190" height="60" as="geometry" />
        </mxCell>
        <mxCell id="N2iKn8VOF-II6vIwSYb8-60" value="" style="endArrow=none;html=1;entryX=0;entryY=0;entryDx=0;entryDy=0;exitX=0;exitY=1;exitDx=0;exitDy=0;" parent="N2iKn8VOF-II6vIwSYb8-58" source="N2iKn8VOF-II6vIwSYb8-59" target="N2iKn8VOF-II6vIwSYb8-59" edge="1">
          <mxGeometry width="50" height="50" relative="1" as="geometry">
            <mxPoint x="101" y="-465" as="sourcePoint" />
            <mxPoint x="151" y="-515" as="targetPoint" />
          </mxGeometry>
        </mxCell>
        <mxCell id="N2iKn8VOF-II6vIwSYb8-66" value="" style="group" parent="N2iKn8VOF-II6vIwSYb8-1" vertex="1" connectable="0">
          <mxGeometry x="1170" y="463.9" width="190" height="70" as="geometry" />
        </mxCell>
        <mxCell id="N2iKn8VOF-II6vIwSYb8-67" value="Speciality Medicine 2" style="ellipse;whiteSpace=wrap;html=1;fillColor=#fff2cc;strokeColor=#d6b656;" parent="N2iKn8VOF-II6vIwSYb8-66" vertex="1">
          <mxGeometry width="190" height="60" as="geometry" />
        </mxCell>
        <mxCell id="N2iKn8VOF-II6vIwSYb8-68" value="" style="endArrow=none;html=1;entryX=0;entryY=0;entryDx=0;entryDy=0;exitX=0;exitY=1;exitDx=0;exitDy=0;" parent="N2iKn8VOF-II6vIwSYb8-66" source="N2iKn8VOF-II6vIwSYb8-67" target="N2iKn8VOF-II6vIwSYb8-67" edge="1">
          <mxGeometry width="50" height="50" relative="1" as="geometry">
            <mxPoint x="101" y="-465" as="sourcePoint" />
            <mxPoint x="151" y="-515" as="targetPoint" />
          </mxGeometry>
        </mxCell>
        <mxCell id="N2iKn8VOF-II6vIwSYb8-70" value="" style="group" parent="N2iKn8VOF-II6vIwSYb8-1" vertex="1" connectable="0">
          <mxGeometry x="1430" y="460" width="190" height="60" as="geometry" />
        </mxCell>
        <mxCell id="N2iKn8VOF-II6vIwSYb8-71" value="Womens Healthcare" style="ellipse;whiteSpace=wrap;html=1;fillColor=#fff2cc;strokeColor=#d6b656;" parent="N2iKn8VOF-II6vIwSYb8-70" vertex="1">
          <mxGeometry width="190" height="60" as="geometry" />
        </mxCell>
        <mxCell id="N2iKn8VOF-II6vIwSYb8-72" value="" style="endArrow=none;html=1;entryX=0;entryY=0;entryDx=0;entryDy=0;exitX=0;exitY=1;exitDx=0;exitDy=0;" parent="N2iKn8VOF-II6vIwSYb8-70" source="N2iKn8VOF-II6vIwSYb8-71" target="N2iKn8VOF-II6vIwSYb8-71" edge="1">
          <mxGeometry width="50" height="50" relative="1" as="geometry">
            <mxPoint x="101" y="-465" as="sourcePoint" />
            <mxPoint x="151" y="-515" as="targetPoint" />
          </mxGeometry>
        </mxCell>
        <mxCell id="N2iKn8VOF-II6vIwSYb8-147" value="Transporteur" style="shape=process;whiteSpace=wrap;html=1;backgroundOutline=1;strokeColor=#d6b656;fillColor=#fff2cc;" parent="N2iKn8VOF-II6vIwSYb8-1" vertex="1">
          <mxGeometry x="1783" y="571.1" width="194" height="60" as="geometry" />
        </mxCell>
        <mxCell id="N2iKn8VOF-II6vIwSYb8-150" style="edgeStyle=orthogonalEdgeStyle;rounded=0;orthogonalLoop=1;jettySize=auto;html=1;entryX=0;entryY=0.5;entryDx=0;entryDy=0;" parent="N2iKn8VOF-II6vIwSYb8-1" source="N2iKn8VOF-II6vIwSYb8-54" target="N2iKn8VOF-II6vIwSYb8-147" edge="1">
          <mxGeometry relative="1" as="geometry" />
        </mxCell>
        <mxCell id="N2iKn8VOF-II6vIwSYb8-153" value="Anlagenbauer" style="shape=process;whiteSpace=wrap;html=1;backgroundOutline=1;strokeColor=#d6b656;fillColor=#fff2cc;" parent="N2iKn8VOF-II6vIwSYb8-1" vertex="1">
          <mxGeometry x="1783" y="741.1" width="194" height="60" as="geometry" />
        </mxCell>
        <mxCell id="N2iKn8VOF-II6vIwSYb8-152" value="Vertriebler" style="shape=process;whiteSpace=wrap;html=1;backgroundOutline=1;strokeColor=#d6b656;fillColor=#fff2cc;" parent="N2iKn8VOF-II6vIwSYb8-1" vertex="1">
          <mxGeometry x="1783" y="661.1" width="194" height="60" as="geometry" />
        </mxCell>
        <mxCell id="N2iKn8VOF-II6vIwSYb8-151" value="Mikroelektronik" style="shape=process;whiteSpace=wrap;html=1;backgroundOutline=1;strokeColor=#d6b656;fillColor=#fff2cc;" parent="N2iKn8VOF-II6vIwSYb8-1" vertex="1">
          <mxGeometry x="1783" y="831.1" width="194" height="60" as="geometry" />
        </mxCell>
        <mxCell id="N2iKn8VOF-II6vIwSYb8-155" style="edgeStyle=orthogonalEdgeStyle;rounded=0;orthogonalLoop=1;jettySize=auto;html=1;entryX=0.5;entryY=0;entryDx=0;entryDy=0;" parent="N2iKn8VOF-II6vIwSYb8-1" source="N2iKn8VOF-II6vIwSYb8-146" target="N2iKn8VOF-II6vIwSYb8-147" edge="1">
          <mxGeometry relative="1" as="geometry" />
        </mxCell>
        <mxCell id="N2iKn8VOF-II6vIwSYb8-146" value="eCarrier GmbH" style="rounded=0;whiteSpace=wrap;html=1;strokeColor=#d6b656;fillColor=#fff2cc;" parent="N2iKn8VOF-II6vIwSYb8-1" vertex="1">
          <mxGeometry x="2010" y="521.0999999999999" width="170" height="60" as="geometry" />
        </mxCell>
        <mxCell id="N2iKn8VOF-II6vIwSYb8-156" style="edgeStyle=orthogonalEdgeStyle;rounded=0;orthogonalLoop=1;jettySize=auto;html=1;entryX=0.5;entryY=1;entryDx=0;entryDy=0;" parent="N2iKn8VOF-II6vIwSYb8-1" source="N2iKn8VOF-II6vIwSYb8-154" target="N2iKn8VOF-II6vIwSYb8-147" edge="1">
          <mxGeometry relative="1" as="geometry" />
        </mxCell>
        <mxCell id="N2iKn8VOF-II6vIwSYb8-154" value="GoFa AG" style="rounded=0;whiteSpace=wrap;html=1;strokeColor=#d6b656;fillColor=#fff2cc;" parent="N2iKn8VOF-II6vIwSYb8-1" vertex="1">
          <mxGeometry x="2020" y="621.1" width="170" height="60" as="geometry" />
        </mxCell>
        <mxCell id="N2iKn8VOF-II6vIwSYb8-157" value="Seetransporteur&lt;span style=&quot;color: rgba(0 , 0 , 0 , 0) ; font-family: monospace ; font-size: 0px&quot;&gt;%3CmxGraphModel%3E%3Croot%3E%3CmxCell%20id%3D%220%22%2F%3E%3CmxCell%20id%3D%221%22%20parent%3D%220%22%2F%3E%3CmxCell%20id%3D%222%22%20value%3D%22Dr.%20Bernd%20Bliege%22%20style%3D%22rounded%3D0%3BwhiteSpace%3Dwrap%3Bhtml%3D1%3BstrokeColor%3D%23d6b656%3BfillColor%3D%23fff2cc%3B%22%20vertex%3D%221%22%20parent%3D%221%22%3E%3CmxGeometry%20x%3D%22860%22%20y%3D%221100%22%20width%3D%22170%22%20height%3D%2260%22%20as%3D%22geometry%22%2F%3E%3C%2FmxCell%3E%3C%2Froot%3E%3C%2FmxGraphModel%3E&lt;/span&gt;" style="shape=umlActor;verticalLabelPosition=bottom;verticalAlign=top;html=1;outlineConnect=0;strokeColor=#330000;" parent="N2iKn8VOF-II6vIwSYb8-1" vertex="1">
          <mxGeometry x="2300" y="511.09999999999997" width="30" height="60" as="geometry" />
        </mxCell>
        <mxCell id="N2iKn8VOF-II6vIwSYb8-158" value="Landtransporteur" style="shape=umlActor;verticalLabelPosition=bottom;verticalAlign=top;html=1;outlineConnect=0;strokeColor=#330000;" parent="N2iKn8VOF-II6vIwSYb8-1" vertex="1">
          <mxGeometry x="2300" y="641.0999999999999" width="30" height="60" as="geometry" />
        </mxCell>
        <mxCell id="N2iKn8VOF-II6vIwSYb8-161" value="" style="endArrow=none;dashed=1;html=1;dashPattern=1 3;strokeWidth=2;entryX=0;entryY=0.3333333333333333;entryDx=0;entryDy=0;entryPerimeter=0;exitX=1;exitY=0.75;exitDx=0;exitDy=0;" parent="N2iKn8VOF-II6vIwSYb8-1" source="N2iKn8VOF-II6vIwSYb8-154" target="N2iKn8VOF-II6vIwSYb8-158" edge="1">
          <mxGeometry width="50" height="50" relative="1" as="geometry">
            <mxPoint x="1330" y="741.1" as="sourcePoint" />
            <mxPoint x="1380" y="691.1" as="targetPoint" />
          </mxGeometry>
        </mxCell>
        <mxCell id="N2iKn8VOF-II6vIwSYb8-160" value="" style="endArrow=none;dashed=1;html=1;dashPattern=1 3;strokeWidth=2;entryX=0;entryY=0.3333333333333333;entryDx=0;entryDy=0;entryPerimeter=0;exitX=1;exitY=0.25;exitDx=0;exitDy=0;" parent="N2iKn8VOF-II6vIwSYb8-1" source="N2iKn8VOF-II6vIwSYb8-146" target="N2iKn8VOF-II6vIwSYb8-157" edge="1">
          <mxGeometry width="50" height="50" relative="1" as="geometry">
            <mxPoint x="1330" y="741.1" as="sourcePoint" />
            <mxPoint x="1380" y="691.1" as="targetPoint" />
          </mxGeometry>
        </mxCell>
        <mxCell id="N2iKn8VOF-II6vIwSYb8-162" style="edgeStyle=orthogonalEdgeStyle;rounded=0;orthogonalLoop=1;jettySize=auto;html=1;entryX=0;entryY=0.5;entryDx=0;entryDy=0;" parent="N2iKn8VOF-II6vIwSYb8-1" source="N2iKn8VOF-II6vIwSYb8-54" target="N2iKn8VOF-II6vIwSYb8-152" edge="1">
          <mxGeometry relative="1" as="geometry" />
        </mxCell>
        <mxCell id="N2iKn8VOF-II6vIwSYb8-163" style="edgeStyle=orthogonalEdgeStyle;rounded=0;orthogonalLoop=1;jettySize=auto;html=1;entryX=0;entryY=0.5;entryDx=0;entryDy=0;" parent="N2iKn8VOF-II6vIwSYb8-1" source="N2iKn8VOF-II6vIwSYb8-54" target="N2iKn8VOF-II6vIwSYb8-153" edge="1">
          <mxGeometry relative="1" as="geometry" />
        </mxCell>
        <mxCell id="N2iKn8VOF-II6vIwSYb8-164" style="edgeStyle=orthogonalEdgeStyle;rounded=0;orthogonalLoop=1;jettySize=auto;html=1;entryX=0;entryY=0.5;entryDx=0;entryDy=0;" parent="N2iKn8VOF-II6vIwSYb8-1" source="N2iKn8VOF-II6vIwSYb8-54" target="N2iKn8VOF-II6vIwSYb8-151" edge="1">
          <mxGeometry relative="1" as="geometry" />
        </mxCell>
        <mxCell id="N2iKn8VOF-II6vIwSYb8-53" value="" style="group" parent="N2iKn8VOF-II6vIwSYb8-1" vertex="1" connectable="0">
          <mxGeometry x="1650" y="472.2" width="190" height="60" as="geometry" />
        </mxCell>
        <mxCell id="N2iKn8VOF-II6vIwSYb8-54" value="Outsourcing an Partnerunternehmen" style="ellipse;whiteSpace=wrap;html=1;fillColor=#fff2cc;strokeColor=#d6b656;" parent="N2iKn8VOF-II6vIwSYb8-53" vertex="1">
          <mxGeometry width="190" height="60" as="geometry" />
        </mxCell>
        <mxCell id="N2iKn8VOF-II6vIwSYb8-55" value="" style="endArrow=none;html=1;entryX=0;entryY=0;entryDx=0;entryDy=0;exitX=0;exitY=1;exitDx=0;exitDy=0;" parent="N2iKn8VOF-II6vIwSYb8-53" source="N2iKn8VOF-II6vIwSYb8-54" target="N2iKn8VOF-II6vIwSYb8-54" edge="1">
          <mxGeometry width="50" height="50" relative="1" as="geometry">
            <mxPoint x="101" y="-465" as="sourcePoint" />
            <mxPoint x="151" y="-515" as="targetPoint" />
          </mxGeometry>
        </mxCell>
        <mxCell id="N2iKn8VOF-II6vIwSYb8-43" value="" style="group" parent="N2iKn8VOF-II6vIwSYb8-1" vertex="1" connectable="0">
          <mxGeometry x="1290" y="140" width="190" height="60" as="geometry" />
        </mxCell>
        <mxCell id="N2iKn8VOF-II6vIwSYb8-34" value="F &amp;amp; E" style="ellipse;whiteSpace=wrap;html=1;fillColor=#fff2cc;strokeColor=#d6b656;" parent="N2iKn8VOF-II6vIwSYb8-43" vertex="1">
          <mxGeometry width="190" height="60" as="geometry" />
        </mxCell>
        <mxCell id="N2iKn8VOF-II6vIwSYb8-35" value="" style="endArrow=none;html=1;entryX=0;entryY=0;entryDx=0;entryDy=0;exitX=0;exitY=1;exitDx=0;exitDy=0;" parent="N2iKn8VOF-II6vIwSYb8-43" source="N2iKn8VOF-II6vIwSYb8-34" target="N2iKn8VOF-II6vIwSYb8-34" edge="1">
          <mxGeometry width="50" height="50" relative="1" as="geometry">
            <mxPoint x="101" y="-465" as="sourcePoint" />
            <mxPoint x="151" y="-515" as="targetPoint" />
          </mxGeometry>
        </mxCell>
        <mxCell id="N2iKn8VOF-II6vIwSYb8-165" value="" style="group" parent="N2iKn8VOF-II6vIwSYb8-1" vertex="1" connectable="0">
          <mxGeometry x="1870" y="289.9999999999999" width="190" height="60" as="geometry" />
        </mxCell>
        <mxCell id="N2iKn8VOF-II6vIwSYb8-166" value="QualitÃ¤tsmanagement" style="ellipse;whiteSpace=wrap;html=1;fillColor=#fff2cc;strokeColor=#d6b656;" parent="N2iKn8VOF-II6vIwSYb8-165" vertex="1">
          <mxGeometry width="190" height="60" as="geometry" />
        </mxCell>
        <mxCell id="N2iKn8VOF-II6vIwSYb8-167" value="" style="endArrow=none;html=1;entryX=0;entryY=0;entryDx=0;entryDy=0;exitX=0;exitY=1;exitDx=0;exitDy=0;" parent="N2iKn8VOF-II6vIwSYb8-165" source="N2iKn8VOF-II6vIwSYb8-166" target="N2iKn8VOF-II6vIwSYb8-166" edge="1">
          <mxGeometry width="50" height="50" relative="1" as="geometry">
            <mxPoint x="101" y="-465" as="sourcePoint" />
            <mxPoint x="151" y="-515" as="targetPoint" />
          </mxGeometry>
        </mxCell>
        <mxCell id="N2iKn8VOF-II6vIwSYb8-168" style="edgeStyle=orthogonalEdgeStyle;rounded=0;orthogonalLoop=1;jettySize=auto;html=1;exitX=1;exitY=1;exitDx=0;exitDy=0;" parent="N2iKn8VOF-II6vIwSYb8-1" source="N2iKn8VOF-II6vIwSYb8-34" target="N2iKn8VOF-II6vIwSYb8-166" edge="1">
          <mxGeometry relative="1" as="geometry">
            <Array as="points">
              <mxPoint x="1452" y="240" />
              <mxPoint x="1965" y="240" />
            </Array>
          </mxGeometry>
        </mxCell>
        <mxCell id="N2iKn8VOF-II6vIwSYb8-139" style="edgeStyle=orthogonalEdgeStyle;rounded=0;orthogonalLoop=1;jettySize=auto;html=1;entryX=0;entryY=0.5;entryDx=0;entryDy=0;" parent="1" source="N2iKn8VOF-II6vIwSYb8-138" target="N2iKn8VOF-II6vIwSYb8-135" edge="1">
          <mxGeometry relative="1" as="geometry" />
        </mxCell>
        <mxCell id="N2iKn8VOF-II6vIwSYb8-138" value="Moritz MÃ¤nnel" style="rounded=0;whiteSpace=wrap;html=1;strokeColor=#d6b656;fillColor=#fff2cc;" parent="1" vertex="1">
          <mxGeometry x="-500" y="821.1" width="170" height="60" as="geometry" />
        </mxCell>
        <mxCell id="N2iKn8VOF-II6vIwSYb8-142" style="edgeStyle=orthogonalEdgeStyle;rounded=0;orthogonalLoop=1;jettySize=auto;html=1;entryX=0;entryY=0.5;entryDx=0;entryDy=0;" parent="1" source="N2iKn8VOF-II6vIwSYb8-140" target="N2iKn8VOF-II6vIwSYb8-136" edge="1">
          <mxGeometry relative="1" as="geometry" />
        </mxCell>
        <mxCell id="N2iKn8VOF-II6vIwSYb8-140" value="Dr. Adrian Ausdauer" style="rounded=0;whiteSpace=wrap;html=1;strokeColor=#d6b656;fillColor=#fff2cc;" parent="1" vertex="1">
          <mxGeometry x="-500" y="901.1" width="170" height="60" as="geometry" />
        </mxCell>
        <mxCell id="N2iKn8VOF-II6vIwSYb8-143" style="edgeStyle=orthogonalEdgeStyle;rounded=0;orthogonalLoop=1;jettySize=auto;html=1;entryX=0;entryY=0.75;entryDx=0;entryDy=0;" parent="1" source="N2iKn8VOF-II6vIwSYb8-141" target="N2iKn8VOF-II6vIwSYb8-136" edge="1">
          <mxGeometry relative="1" as="geometry" />
        </mxCell>
        <mxCell id="N2iKn8VOF-II6vIwSYb8-141" value="Dr. Bernd Bliege" style="rounded=0;whiteSpace=wrap;html=1;strokeColor=#d6b656;fillColor=#fff2cc;" parent="1" vertex="1">
          <mxGeometry x="-500" y="981.1" width="170" height="60" as="geometry" />
        </mxCell>
        <mxCell id="EbAKEhGTsCp8Tna9XVQz-1" style="edgeStyle=orthogonalEdgeStyle;rounded=0;orthogonalLoop=1;jettySize=auto;html=1;entryX=1;entryY=0.941;entryDx=0;entryDy=0;entryPerimeter=0;" edge="1" parent="1" source="EbAKEhGTsCp8Tna9XVQz-2" target="EbAKEhGTsCp8Tna9XVQz-30">
          <mxGeometry relative="1" as="geometry" />
        </mxCell>
        <mxCell id="EbAKEhGTsCp8Tna9XVQz-2" value="Bereich" style="swimlane;fontStyle=1;align=center;verticalAlign=top;childLayout=stackLayout;horizontal=1;startSize=26;horizontalStack=0;resizeParent=1;resizeParentMax=0;resizeLast=0;collapsible=1;marginBottom=0;" vertex="1" parent="1">
          <mxGeometry x="540" y="1960" width="330" height="60" as="geometry" />
        </mxCell>
        <mxCell id="EbAKEhGTsCp8Tna9XVQz-4" value="" style="line;strokeWidth=1;fillColor=none;align=left;verticalAlign=middle;spacingTop=-1;spacingLeft=3;spacingRight=3;rotatable=0;labelPosition=right;points=[];portConstraint=eastwest;" vertex="1" parent="EbAKEhGTsCp8Tna9XVQz-2">
          <mxGeometry y="26" width="330" height="8" as="geometry" />
        </mxCell>
        <mxCell id="EbAKEhGTsCp8Tna9XVQz-5" value="+ berechneBerichsUmsatz(produkte: List&lt;Produkt&gt;): int" style="text;strokeColor=none;fillColor=none;align=left;verticalAlign=top;spacingLeft=4;spacingRight=4;overflow=hidden;rotatable=0;points=[[0,0.5],[1,0.5]];portConstraint=eastwest;" vertex="1" parent="EbAKEhGTsCp8Tna9XVQz-2">
          <mxGeometry y="34" width="330" height="26" as="geometry" />
        </mxCell>
        <mxCell id="EbAKEhGTsCp8Tna9XVQz-6" value="Erkrankung" style="swimlane;fontStyle=1;align=center;verticalAlign=top;childLayout=stackLayout;horizontal=1;startSize=26;horizontalStack=0;resizeParent=1;resizeParentMax=0;resizeLast=0;collapsible=1;marginBottom=0;" vertex="1" parent="1">
          <mxGeometry x="40" y="2340" width="200" height="134" as="geometry" />
        </mxCell>
        <mxCell id="EbAKEhGTsCp8Tna9XVQz-7" value="+ name: String&#xa;+ beschreibung: String" style="text;strokeColor=none;fillColor=none;align=left;verticalAlign=top;spacingLeft=4;spacingRight=4;overflow=hidden;rotatable=0;points=[[0,0.5],[1,0.5]];portConstraint=eastwest;" vertex="1" parent="EbAKEhGTsCp8Tna9XVQz-6">
          <mxGeometry y="26" width="200" height="74" as="geometry" />
        </mxCell>
        <mxCell id="EbAKEhGTsCp8Tna9XVQz-8" value="" style="line;strokeWidth=1;fillColor=none;align=left;verticalAlign=middle;spacingTop=-1;spacingLeft=3;spacingRight=3;rotatable=0;labelPosition=right;points=[];portConstraint=eastwest;" vertex="1" parent="EbAKEhGTsCp8Tna9XVQz-6">
          <mxGeometry y="100" width="200" height="8" as="geometry" />
        </mxCell>
        <mxCell id="EbAKEhGTsCp8Tna9XVQz-9" value="+ method(type): type" style="text;strokeColor=none;fillColor=none;align=left;verticalAlign=top;spacingLeft=4;spacingRight=4;overflow=hidden;rotatable=0;points=[[0,0.5],[1,0.5]];portConstraint=eastwest;" vertex="1" parent="EbAKEhGTsCp8Tna9XVQz-6">
          <mxGeometry y="108" width="200" height="26" as="geometry" />
        </mxCell>
        <mxCell id="EbAKEhGTsCp8Tna9XVQz-10" value="0 .. *" style="text;html=1;strokeColor=none;fillColor=none;align=center;verticalAlign=middle;whiteSpace=wrap;rounded=0;" vertex="1" parent="1">
          <mxGeometry x="530" y="2200" width="40" height="20" as="geometry" />
        </mxCell>
        <mxCell id="EbAKEhGTsCp8Tna9XVQz-15" value="ProduktArt" style="text;html=1;strokeColor=none;fillColor=none;align=center;verticalAlign=middle;whiteSpace=wrap;rounded=0;" vertex="1" parent="1">
          <mxGeometry y="2200" width="90" height="20" as="geometry" />
        </mxCell>
        <mxCell id="EbAKEhGTsCp8Tna9XVQz-16" value="1 .. *" style="text;html=1;strokeColor=none;fillColor=none;align=center;verticalAlign=middle;whiteSpace=wrap;rounded=0;" vertex="1" parent="1">
          <mxGeometry x="700" y="1997" width="40" height="20" as="geometry" />
        </mxCell>
        <mxCell id="EbAKEhGTsCp8Tna9XVQz-17" style="edgeStyle=orthogonalEdgeStyle;rounded=0;orthogonalLoop=1;jettySize=auto;html=1;" edge="1" parent="1" source="EbAKEhGTsCp8Tna9XVQz-18">
          <mxGeometry relative="1" as="geometry">
            <mxPoint x="540" y="2003" as="targetPoint" />
          </mxGeometry>
        </mxCell>
        <mxCell id="EbAKEhGTsCp8Tna9XVQz-18" value="Division" style="swimlane;fontStyle=1;align=center;verticalAlign=top;childLayout=stackLayout;horizontal=1;startSize=26;horizontalStack=0;resizeParent=1;resizeParentMax=0;resizeLast=0;collapsible=1;marginBottom=0;" vertex="1" parent="1">
          <mxGeometry x="60" y="1956" width="320" height="60" as="geometry" />
        </mxCell>
        <mxCell id="EbAKEhGTsCp8Tna9XVQz-20" value="" style="line;strokeWidth=1;fillColor=none;align=left;verticalAlign=middle;spacingTop=-1;spacingLeft=3;spacingRight=3;rotatable=0;labelPosition=right;points=[];portConstraint=eastwest;" vertex="1" parent="EbAKEhGTsCp8Tna9XVQz-18">
          <mxGeometry y="26" width="320" height="8" as="geometry" />
        </mxCell>
        <mxCell id="EbAKEhGTsCp8Tna9XVQz-21" value="+ berechneDivisionsumsatz(bereiche: List&lt;Bereich&gt;): int" style="text;strokeColor=none;fillColor=none;align=left;verticalAlign=top;spacingLeft=4;spacingRight=4;overflow=hidden;rotatable=0;points=[[0,0.5],[1,0.5]];portConstraint=eastwest;" vertex="1" parent="EbAKEhGTsCp8Tna9XVQz-18">
          <mxGeometry y="34" width="320" height="26" as="geometry" />
        </mxCell>
        <mxCell id="EbAKEhGTsCp8Tna9XVQz-22" value="&lt;p style=&quot;margin: 0px ; margin-top: 4px ; text-align: center&quot;&gt;&lt;i&gt;&amp;lt;&amp;lt;Abstract&amp;gt;&amp;gt;&lt;/i&gt;&lt;br&gt;&lt;b&gt;Organisationseinheit&lt;/b&gt;&lt;/p&gt;&lt;hr size=&quot;1&quot;&gt;&lt;p style=&quot;margin: 0px ; margin-left: 4px&quot;&gt;+ name: String&lt;br&gt;+ umsatz: int&lt;/p&gt;&lt;hr size=&quot;1&quot;&gt;&lt;p style=&quot;margin: 0px ; margin-left: 4px&quot;&gt;+ setName(neuerName: String): void&lt;br&gt;+ getName(): String&lt;/p&gt;" style="verticalAlign=top;align=left;overflow=fill;fontSize=12;fontFamily=Helvetica;html=1;" vertex="1" parent="1">
          <mxGeometry x="380" y="1730" width="270" height="140" as="geometry" />
        </mxCell>
        <mxCell id="EbAKEhGTsCp8Tna9XVQz-23" value="Extends" style="endArrow=block;endSize=16;endFill=0;html=1;entryX=0.5;entryY=1;entryDx=0;entryDy=0;exitX=0.5;exitY=0;exitDx=0;exitDy=0;" edge="1" parent="1" source="EbAKEhGTsCp8Tna9XVQz-18" target="EbAKEhGTsCp8Tna9XVQz-22">
          <mxGeometry width="160" relative="1" as="geometry">
            <mxPoint x="320" y="1970" as="sourcePoint" />
            <mxPoint x="480" y="1970" as="targetPoint" />
          </mxGeometry>
        </mxCell>
        <mxCell id="EbAKEhGTsCp8Tna9XVQz-24" value="Extends" style="endArrow=block;endSize=16;endFill=0;html=1;exitX=0.5;exitY=0;exitDx=0;exitDy=0;entryX=0.5;entryY=1;entryDx=0;entryDy=0;" edge="1" parent="1" source="EbAKEhGTsCp8Tna9XVQz-2" target="EbAKEhGTsCp8Tna9XVQz-22">
          <mxGeometry width="160" relative="1" as="geometry">
            <mxPoint x="330" y="1980" as="sourcePoint" />
            <mxPoint x="530" y="1870" as="targetPoint" />
          </mxGeometry>
        </mxCell>
        <mxCell id="EbAKEhGTsCp8Tna9XVQz-26" value="bereiche: List" style="text;html=1;strokeColor=none;fillColor=none;align=center;verticalAlign=middle;whiteSpace=wrap;rounded=0;" vertex="1" parent="1">
          <mxGeometry x="440" y="2020" width="110" height="20" as="geometry" />
        </mxCell>
        <mxCell id="EbAKEhGTsCp8Tna9XVQz-27" style="edgeStyle=orthogonalEdgeStyle;rounded=0;orthogonalLoop=1;jettySize=auto;html=1;entryX=0.5;entryY=0;entryDx=0;entryDy=0;" edge="1" parent="1" source="EbAKEhGTsCp8Tna9XVQz-29" target="EbAKEhGTsCp8Tna9XVQz-6">
          <mxGeometry relative="1" as="geometry" />
        </mxCell>
        <mxCell id="EbAKEhGTsCp8Tna9XVQz-28" style="edgeStyle=orthogonalEdgeStyle;rounded=0;orthogonalLoop=1;jettySize=auto;html=1;exitX=0.609;exitY=1.026;exitDx=0;exitDy=0;exitPerimeter=0;" edge="1" parent="1" source="EbAKEhGTsCp8Tna9XVQz-32" target="EbAKEhGTsCp8Tna9XVQz-33">
          <mxGeometry relative="1" as="geometry" />
        </mxCell>
        <mxCell id="EbAKEhGTsCp8Tna9XVQz-29" value="Produkte" style="swimlane;fontStyle=1;align=center;verticalAlign=top;childLayout=stackLayout;horizontal=1;startSize=26;horizontalStack=0;resizeParent=1;resizeParentMax=0;resizeLast=0;collapsible=1;marginBottom=0;" vertex="1" parent="1">
          <mxGeometry x="190" y="2078" width="320" height="194" as="geometry" />
        </mxCell>
        <mxCell id="EbAKEhGTsCp8Tna9XVQz-30" value="+ name: String&#xa;+ verkaufsZahlen: int&#xa;+ umsatz: int&#xa;+ gewinn: int&#xa;+ produktionsZahl: int&#xa;+ verkaufsZahl: int&#xa;+ behandlungsZiel: Erkrankung" style="text;strokeColor=none;fillColor=none;align=left;verticalAlign=top;spacingLeft=4;spacingRight=4;overflow=hidden;rotatable=0;points=[[0,0.5],[1,0.5]];portConstraint=eastwest;" vertex="1" parent="EbAKEhGTsCp8Tna9XVQz-29">
          <mxGeometry y="26" width="320" height="134" as="geometry" />
        </mxCell>
        <mxCell id="EbAKEhGTsCp8Tna9XVQz-31" value="" style="line;strokeWidth=1;fillColor=none;align=left;verticalAlign=middle;spacingTop=-1;spacingLeft=3;spacingRight=3;rotatable=0;labelPosition=right;points=[];portConstraint=eastwest;" vertex="1" parent="EbAKEhGTsCp8Tna9XVQz-29">
          <mxGeometry y="160" width="320" height="8" as="geometry" />
        </mxCell>
        <mxCell id="EbAKEhGTsCp8Tna9XVQz-32" value="+ Ã¤ndereBehandlungsziel(erkrankung: Erkrankung): void" style="text;strokeColor=none;fillColor=none;align=left;verticalAlign=top;spacingLeft=4;spacingRight=4;overflow=hidden;rotatable=0;points=[[0,0.5],[1,0.5]];portConstraint=eastwest;" vertex="1" parent="EbAKEhGTsCp8Tna9XVQz-29">
          <mxGeometry y="168" width="320" height="26" as="geometry" />
        </mxCell>
        <mxCell id="EbAKEhGTsCp8Tna9XVQz-33" value="Zulassungsbescheinigung" style="swimlane;fontStyle=1;align=center;verticalAlign=top;childLayout=stackLayout;horizontal=1;startSize=26;horizontalStack=0;resizeParent=1;resizeParentMax=0;resizeLast=0;collapsible=1;marginBottom=0;" vertex="1" parent="1">
          <mxGeometry x="590" y="2350" width="220" height="94" as="geometry" />
        </mxCell>
        <mxCell id="EbAKEhGTsCp8Tna9XVQz-34" value="+ name: String" style="text;strokeColor=none;fillColor=none;align=left;verticalAlign=top;spacingLeft=4;spacingRight=4;overflow=hidden;rotatable=0;points=[[0,0.5],[1,0.5]];portConstraint=eastwest;" vertex="1" parent="EbAKEhGTsCp8Tna9XVQz-33">
          <mxGeometry y="26" width="220" height="34" as="geometry" />
        </mxCell>
        <mxCell id="EbAKEhGTsCp8Tna9XVQz-35" value="" style="line;strokeWidth=1;fillColor=none;align=left;verticalAlign=middle;spacingTop=-1;spacingLeft=3;spacingRight=3;rotatable=0;labelPosition=right;points=[];portConstraint=eastwest;" vertex="1" parent="EbAKEhGTsCp8Tna9XVQz-33">
          <mxGeometry y="60" width="220" height="8" as="geometry" />
        </mxCell>
        <mxCell id="EbAKEhGTsCp8Tna9XVQz-36" value="+ method(type): type" style="text;strokeColor=none;fillColor=none;align=left;verticalAlign=top;spacingLeft=4;spacingRight=4;overflow=hidden;rotatable=0;points=[[0,0.5],[1,0.5]];portConstraint=eastwest;" vertex="1" parent="EbAKEhGTsCp8Tna9XVQz-33">
          <mxGeometry y="68" width="220" height="26" as="geometry" />
        </mxCell>
        <mxCell id="EbAKEhGTsCp8Tna9XVQz-37" value="1&amp;nbsp;" style="text;html=1;strokeColor=none;fillColor=none;align=center;verticalAlign=middle;whiteSpace=wrap;rounded=0;" vertex="1" parent="1">
          <mxGeometry x="90" y="2310" width="40" height="20" as="geometry" />
        </mxCell>
        <mxCell id="EbAKEhGTsCp8Tna9XVQz-38" value="produkte: List&amp;lt;Produkt&amp;gt;" style="text;html=1;strokeColor=none;fillColor=none;align=center;verticalAlign=middle;whiteSpace=wrap;rounded=0;" vertex="1" parent="1">
          <mxGeometry x="510" y="2240" width="160" height="20" as="geometry" />
        </mxCell>
        <mxCell id="EbAKEhGTsCp8Tna9XVQz-39" value="&amp;lt;&amp;lt;enumeration&amp;gt;&amp;gt;&lt;br&gt;&lt;b&gt;ProduktArt&lt;/b&gt;" style="swimlane;fontStyle=0;align=center;verticalAlign=top;childLayout=stackLayout;horizontal=1;startSize=40;horizontalStack=0;resizeParent=1;resizeParentMax=0;resizeLast=0;collapsible=0;marginBottom=0;html=1;" vertex="1" parent="1">
          <mxGeometry x="-220" y="2090" width="220" height="150" as="geometry" />
        </mxCell>
        <mxCell id="EbAKEhGTsCp8Tna9XVQz-40" value="&lt;b style=&quot;text-align: center&quot;&gt;PATENTGESCHÃTZT&lt;br&gt;GENERIKA&lt;br&gt;BIOSIMILARS&lt;br&gt;HUMANIMPFSTOFFE&lt;br&gt;REZEPTFREIE MEDIKAMENTE&lt;br&gt;TIERMEDIZINISCHE PRODUKTE&lt;br&gt;AUGENHEILKUNDE&lt;br&gt;&lt;br&gt;&lt;/b&gt;" style="text;html=1;strokeColor=none;fillColor=none;align=left;verticalAlign=middle;spacingLeft=4;spacingRight=4;overflow=hidden;rotatable=0;points=[[0,0.5],[1,0.5]];portConstraint=eastwest;" vertex="1" parent="EbAKEhGTsCp8Tna9XVQz-39">
          <mxGeometry y="40" width="220" height="110" as="geometry" />
        </mxCell>
        <mxCell id="EbAKEhGTsCp8Tna9XVQz-41" value="1" style="text;html=1;strokeColor=none;fillColor=none;align=center;verticalAlign=middle;whiteSpace=wrap;rounded=0;" vertex="1" parent="1">
          <mxGeometry y="2160" width="40" height="20" as="geometry" />
        </mxCell>
        <mxCell id="EbAKEhGTsCp8Tna9XVQz-42" style="edgeStyle=orthogonalEdgeStyle;rounded=0;orthogonalLoop=1;jettySize=auto;html=1;entryX=1;entryY=0.5;entryDx=0;entryDy=0;" edge="1" parent="1" source="EbAKEhGTsCp8Tna9XVQz-30" target="EbAKEhGTsCp8Tna9XVQz-40">
          <mxGeometry relative="1" as="geometry" />
        </mxCell>
      </root>
    </mxGraphModel>
  </diagram>
  <diagram id="SDJRdZ60kerOV4P1klfD" name="Page-2">
    <mxGraphModel dx="2391" dy="874" grid="1" gridSize="10" guides="1" tooltips="1" connect="1" arrows="1" fold="1" page="1" pageScale="1" pageWidth="827" pageHeight="1169" math="0" shadow="0">
      <root>
        <mxCell id="tjBGpb0U95Es2snVHwbC-0" />
        <mxCell id="tjBGpb0U95Es2snVHwbC-1" parent="tjBGpb0U95Es2snVHwbC-0" />
        <mxCell id="tjBGpb0U95Es2snVHwbC-5" style="edgeStyle=orthogonalEdgeStyle;rounded=0;orthogonalLoop=1;jettySize=auto;html=1;" edge="1" parent="tjBGpb0U95Es2snVHwbC-1" source="tjBGpb0U95Es2snVHwbC-2" target="tjBGpb0U95Es2snVHwbC-8">
          <mxGeometry relative="1" as="geometry">
            <mxPoint x="230" y="145" as="targetPoint" />
          </mxGeometry>
        </mxCell>
        <mxCell id="tjBGpb0U95Es2snVHwbC-19" style="edgeStyle=orthogonalEdgeStyle;rounded=0;orthogonalLoop=1;jettySize=auto;html=1;" edge="1" parent="tjBGpb0U95Es2snVHwbC-1" source="tjBGpb0U95Es2snVHwbC-2" target="tjBGpb0U95Es2snVHwbC-20">
          <mxGeometry relative="1" as="geometry">
            <mxPoint x="550" y="290" as="targetPoint" />
          </mxGeometry>
        </mxCell>
        <mxCell id="tjBGpb0U95Es2snVHwbC-22" style="edgeStyle=orthogonalEdgeStyle;rounded=0;orthogonalLoop=1;jettySize=auto;html=1;entryX=0.5;entryY=0;entryDx=0;entryDy=0;" edge="1" parent="tjBGpb0U95Es2snVHwbC-1" source="tjBGpb0U95Es2snVHwbC-2" target="tjBGpb0U95Es2snVHwbC-21">
          <mxGeometry relative="1" as="geometry" />
        </mxCell>
        <mxCell id="tjBGpb0U95Es2snVHwbC-24" style="edgeStyle=orthogonalEdgeStyle;rounded=0;orthogonalLoop=1;jettySize=auto;html=1;entryX=0.5;entryY=0;entryDx=0;entryDy=0;" edge="1" parent="tjBGpb0U95Es2snVHwbC-1" source="tjBGpb0U95Es2snVHwbC-2" target="tjBGpb0U95Es2snVHwbC-23">
          <mxGeometry relative="1" as="geometry">
            <mxPoint x="600" y="250" as="targetPoint" />
            <Array as="points">
              <mxPoint x="395" y="180" />
              <mxPoint x="605" y="180" />
            </Array>
          </mxGeometry>
        </mxCell>
        <mxCell id="tjBGpb0U95Es2snVHwbC-26" style="edgeStyle=orthogonalEdgeStyle;rounded=0;orthogonalLoop=1;jettySize=auto;html=1;entryX=0.5;entryY=0;entryDx=0;entryDy=0;" edge="1" parent="tjBGpb0U95Es2snVHwbC-1" source="tjBGpb0U95Es2snVHwbC-2" target="tjBGpb0U95Es2snVHwbC-25">
          <mxGeometry relative="1" as="geometry">
            <Array as="points">
              <mxPoint x="395" y="180" />
              <mxPoint x="755" y="180" />
            </Array>
          </mxGeometry>
        </mxCell>
        <mxCell id="tjBGpb0U95Es2snVHwbC-28" style="edgeStyle=orthogonalEdgeStyle;rounded=0;orthogonalLoop=1;jettySize=auto;html=1;entryX=0.5;entryY=0;entryDx=0;entryDy=0;" edge="1" parent="tjBGpb0U95Es2snVHwbC-1" source="tjBGpb0U95Es2snVHwbC-2" target="tjBGpb0U95Es2snVHwbC-27">
          <mxGeometry relative="1" as="geometry">
            <Array as="points">
              <mxPoint x="395" y="180" />
              <mxPoint x="905" y="180" />
            </Array>
          </mxGeometry>
        </mxCell>
        <mxCell id="tjBGpb0U95Es2snVHwbC-41" style="edgeStyle=orthogonalEdgeStyle;rounded=0;orthogonalLoop=1;jettySize=auto;html=1;" edge="1" parent="tjBGpb0U95Es2snVHwbC-1" source="tjBGpb0U95Es2snVHwbC-2" target="tjBGpb0U95Es2snVHwbC-42">
          <mxGeometry relative="1" as="geometry">
            <mxPoint x="670" y="140" as="targetPoint" />
          </mxGeometry>
        </mxCell>
        <mxCell id="tjBGpb0U95Es2snVHwbC-2" value="Unternehmensleitung" style="rounded=0;whiteSpace=wrap;html=1;" vertex="1" parent="tjBGpb0U95Es2snVHwbC-1">
          <mxGeometry x="340" y="130" width="110" height="30" as="geometry" />
        </mxCell>
        <mxCell id="tjBGpb0U95Es2snVHwbC-14" style="edgeStyle=orthogonalEdgeStyle;rounded=0;orthogonalLoop=1;jettySize=auto;html=1;entryX=0.5;entryY=0;entryDx=0;entryDy=0;" edge="1" parent="tjBGpb0U95Es2snVHwbC-1" source="tjBGpb0U95Es2snVHwbC-3" target="tjBGpb0U95Es2snVHwbC-4">
          <mxGeometry relative="1" as="geometry" />
        </mxCell>
        <mxCell id="tjBGpb0U95Es2snVHwbC-3" value="VR - PrÃ¤sident (Rolle)" style="rounded=1;whiteSpace=wrap;html=1;" vertex="1" parent="tjBGpb0U95Es2snVHwbC-1">
          <mxGeometry x="-330" y="290" width="120" height="60" as="geometry" />
        </mxCell>
        <mxCell id="tjBGpb0U95Es2snVHwbC-4" value="JÃ¶rg Reinhardt (Person)" style="rounded=1;whiteSpace=wrap;html=1;" vertex="1" parent="tjBGpb0U95Es2snVHwbC-1">
          <mxGeometry x="-330" y="420" width="120" height="60" as="geometry" />
        </mxCell>
        <mxCell id="tjBGpb0U95Es2snVHwbC-11" style="edgeStyle=orthogonalEdgeStyle;rounded=0;orthogonalLoop=1;jettySize=auto;html=1;" edge="1" parent="tjBGpb0U95Es2snVHwbC-1" source="tjBGpb0U95Es2snVHwbC-8" target="tjBGpb0U95Es2snVHwbC-10">
          <mxGeometry relative="1" as="geometry" />
        </mxCell>
        <mxCell id="tjBGpb0U95Es2snVHwbC-15" style="edgeStyle=orthogonalEdgeStyle;rounded=0;orthogonalLoop=1;jettySize=auto;html=1;" edge="1" parent="tjBGpb0U95Es2snVHwbC-1" source="tjBGpb0U95Es2snVHwbC-8" target="tjBGpb0U95Es2snVHwbC-16">
          <mxGeometry relative="1" as="geometry">
            <mxPoint x="100" y="620" as="targetPoint" />
            <Array as="points">
              <mxPoint x="160" y="540" />
              <mxPoint x="-60" y="540" />
            </Array>
          </mxGeometry>
        </mxCell>
        <mxCell id="tjBGpb0U95Es2snVHwbC-39" style="edgeStyle=orthogonalEdgeStyle;rounded=0;orthogonalLoop=1;jettySize=auto;html=1;" edge="1" parent="tjBGpb0U95Es2snVHwbC-1" source="tjBGpb0U95Es2snVHwbC-8" target="tjBGpb0U95Es2snVHwbC-40">
          <mxGeometry relative="1" as="geometry">
            <mxPoint x="50" y="750" as="targetPoint" />
            <Array as="points">
              <mxPoint x="160" y="750" />
            </Array>
          </mxGeometry>
        </mxCell>
        <mxCell id="tjBGpb0U95Es2snVHwbC-8" value="Verwaltung" style="rounded=1;whiteSpace=wrap;html=1;" vertex="1" parent="tjBGpb0U95Es2snVHwbC-1">
          <mxGeometry x="110" y="420" width="120" height="60" as="geometry" />
        </mxCell>
        <mxCell id="tjBGpb0U95Es2snVHwbC-13" style="edgeStyle=orthogonalEdgeStyle;rounded=0;orthogonalLoop=1;jettySize=auto;html=1;entryX=1;entryY=0.5;entryDx=0;entryDy=0;" edge="1" parent="tjBGpb0U95Es2snVHwbC-1" source="tjBGpb0U95Es2snVHwbC-10" target="tjBGpb0U95Es2snVHwbC-4">
          <mxGeometry relative="1" as="geometry" />
        </mxCell>
        <mxCell id="tjBGpb0U95Es2snVHwbC-10" value="Verwaltungsrat (Stelle)" style="rounded=1;whiteSpace=wrap;html=1;" vertex="1" parent="tjBGpb0U95Es2snVHwbC-1">
          <mxGeometry x="-140" y="420" width="120" height="60" as="geometry" />
        </mxCell>
        <mxCell id="tjBGpb0U95Es2snVHwbC-18" style="edgeStyle=orthogonalEdgeStyle;rounded=0;orthogonalLoop=1;jettySize=auto;html=1;" edge="1" parent="tjBGpb0U95Es2snVHwbC-1" source="tjBGpb0U95Es2snVHwbC-16" target="tjBGpb0U95Es2snVHwbC-17">
          <mxGeometry relative="1" as="geometry" />
        </mxCell>
        <mxCell id="tjBGpb0U95Es2snVHwbC-16" value="CEO&lt;br&gt;(Stelle)" style="rounded=1;whiteSpace=wrap;html=1;" vertex="1" parent="tjBGpb0U95Es2snVHwbC-1">
          <mxGeometry x="-140" y="585" width="120" height="60" as="geometry" />
        </mxCell>
        <mxCell id="tjBGpb0U95Es2snVHwbC-17" value="JÃ¶rg Reinhardt (Person)" style="rounded=1;whiteSpace=wrap;html=1;" vertex="1" parent="tjBGpb0U95Es2snVHwbC-1">
          <mxGeometry x="-330" y="585" width="120" height="60" as="geometry" />
        </mxCell>
        <mxCell id="tjBGpb0U95Es2snVHwbC-29" style="edgeStyle=orthogonalEdgeStyle;rounded=0;orthogonalLoop=1;jettySize=auto;html=1;startArrow=none;" edge="1" parent="tjBGpb0U95Es2snVHwbC-1" source="tjBGpb0U95Es2snVHwbC-43">
          <mxGeometry relative="1" as="geometry">
            <mxPoint x="430" y="380" as="targetPoint" />
            <Array as="points">
              <mxPoint x="295" y="380" />
            </Array>
          </mxGeometry>
        </mxCell>
        <mxCell id="tjBGpb0U95Es2snVHwbC-33" style="edgeStyle=orthogonalEdgeStyle;rounded=0;orthogonalLoop=1;jettySize=auto;html=1;" edge="1" parent="tjBGpb0U95Es2snVHwbC-1" source="tjBGpb0U95Es2snVHwbC-20">
          <mxGeometry relative="1" as="geometry">
            <mxPoint x="400" y="500" as="targetPoint" />
            <Array as="points">
              <mxPoint x="295" y="500" />
            </Array>
          </mxGeometry>
        </mxCell>
        <mxCell id="tjBGpb0U95Es2snVHwbC-35" style="edgeStyle=orthogonalEdgeStyle;rounded=0;orthogonalLoop=1;jettySize=auto;html=1;" edge="1" parent="tjBGpb0U95Es2snVHwbC-1" source="tjBGpb0U95Es2snVHwbC-20">
          <mxGeometry relative="1" as="geometry">
            <mxPoint x="400" y="660" as="targetPoint" />
            <Array as="points">
              <mxPoint x="295" y="660" />
            </Array>
          </mxGeometry>
        </mxCell>
        <mxCell id="tjBGpb0U95Es2snVHwbC-37" style="edgeStyle=orthogonalEdgeStyle;rounded=0;orthogonalLoop=1;jettySize=auto;html=1;" edge="1" parent="tjBGpb0U95Es2snVHwbC-1" source="tjBGpb0U95Es2snVHwbC-20">
          <mxGeometry relative="1" as="geometry">
            <mxPoint x="390" y="830" as="targetPoint" />
            <Array as="points">
              <mxPoint x="295" y="830" />
            </Array>
          </mxGeometry>
        </mxCell>
        <mxCell id="tjBGpb0U95Es2snVHwbC-45" style="edgeStyle=orthogonalEdgeStyle;rounded=0;orthogonalLoop=1;jettySize=auto;html=1;" edge="1" parent="tjBGpb0U95Es2snVHwbC-1" source="tjBGpb0U95Es2snVHwbC-20" target="tjBGpb0U95Es2snVHwbC-46">
          <mxGeometry relative="1" as="geometry">
            <mxPoint x="20" y="270" as="targetPoint" />
          </mxGeometry>
        </mxCell>
        <mxCell id="tjBGpb0U95Es2snVHwbC-20" value="Novartis Pharma&lt;br&gt;" style="rounded=0;whiteSpace=wrap;html=1;" vertex="1" parent="tjBGpb0U95Es2snVHwbC-1">
          <mxGeometry x="230" y="260" width="130" height="40" as="geometry" />
        </mxCell>
        <mxCell id="tjBGpb0U95Es2snVHwbC-21" value="Zandoz" style="rounded=0;whiteSpace=wrap;html=1;" vertex="1" parent="tjBGpb0U95Es2snVHwbC-1">
          <mxGeometry x="380" y="260" width="130" height="40" as="geometry" />
        </mxCell>
        <mxCell id="tjBGpb0U95Es2snVHwbC-23" value="Novartis Vaccine" style="rounded=0;whiteSpace=wrap;html=1;" vertex="1" parent="tjBGpb0U95Es2snVHwbC-1">
          <mxGeometry x="540" y="260" width="130" height="40" as="geometry" />
        </mxCell>
        <mxCell id="tjBGpb0U95Es2snVHwbC-25" value="Novartis Consumer Health" style="rounded=0;whiteSpace=wrap;html=1;" vertex="1" parent="tjBGpb0U95Es2snVHwbC-1">
          <mxGeometry x="690" y="260" width="130" height="40" as="geometry" />
        </mxCell>
        <mxCell id="tjBGpb0U95Es2snVHwbC-27" value="Falcon Pharma" style="rounded=0;whiteSpace=wrap;html=1;" vertex="1" parent="tjBGpb0U95Es2snVHwbC-1">
          <mxGeometry x="840" y="260" width="130" height="40" as="geometry" />
        </mxCell>
        <mxCell id="tjBGpb0U95Es2snVHwbC-40" value="Rotkreut ZG&lt;br&gt;(Hauptverwaltungsstandort)" style="rounded=0;whiteSpace=wrap;html=1;" vertex="1" parent="tjBGpb0U95Es2snVHwbC-1">
          <mxGeometry x="-70" y="720" width="180" height="60" as="geometry" />
        </mxCell>
        <mxCell id="tjBGpb0U95Es2snVHwbC-42" value="Hauptsitz Basel&lt;br&gt;()Standort" style="rounded=0;whiteSpace=wrap;html=1;" vertex="1" parent="tjBGpb0U95Es2snVHwbC-1">
          <mxGeometry x="610" y="110" width="120" height="60" as="geometry" />
        </mxCell>
        <mxCell id="tjBGpb0U95Es2snVHwbC-43" value="PatentgeschÃ¼tzte Arznei" style="rounded=0;whiteSpace=wrap;html=1;" vertex="1" parent="tjBGpb0U95Es2snVHwbC-1">
          <mxGeometry x="335" y="350" width="120" height="60" as="geometry" />
        </mxCell>
        <mxCell id="tjBGpb0U95Es2snVHwbC-46" value="Standorte (Europa)" style="rounded=0;whiteSpace=wrap;html=1;" vertex="1" parent="tjBGpb0U95Es2snVHwbC-1">
          <mxGeometry x="-40" y="240" width="120" height="60" as="geometry" />
        </mxCell>
      </root>
    </mxGraphModel>
  </diagram>
  <diagram id="E8Jx6nEF6rD2iBak7PVK" name="ER-Novartis">
    <mxGraphModel dx="782" dy="437" grid="1" gridSize="10" guides="1" tooltips="1" connect="1" arrows="1" fold="1" page="1" pageScale="1" pageWidth="827" pageHeight="1169" math="0" shadow="0">
      <root>
        <mxCell id="oqvTlS9bVFuxblwTlavO-0" />
        <mxCell id="oqvTlS9bVFuxblwTlavO-1" parent="oqvTlS9bVFuxblwTlavO-0" />
        <mxCell id="oqvTlS9bVFuxblwTlavO-2" value="Niederlassung" style="whiteSpace=wrap;html=1;align=center;" vertex="1" parent="oqvTlS9bVFuxblwTlavO-1">
          <mxGeometry x="330" y="330" width="100" height="40" as="geometry" />
        </mxCell>
        <mxCell id="oqvTlS9bVFuxblwTlavO-3" value="Vorgesetzter" style="whiteSpace=wrap;html=1;align=center;" vertex="1" parent="oqvTlS9bVFuxblwTlavO-1">
          <mxGeometry x="110" y="60" width="100" height="40" as="geometry" />
        </mxCell>
        <mxCell id="oqvTlS9bVFuxblwTlavO-4" value="Produkt (Produkttyp(rezeptfrei oder pflichtig), Behandlungsziel, Zulassungsgenehmigung)" style="whiteSpace=wrap;html=1;align=center;" vertex="1" parent="oqvTlS9bVFuxblwTlavO-1">
          <mxGeometry x="510" y="300" width="160" height="70" as="geometry" />
        </mxCell>
        <mxCell id="oqvTlS9bVFuxblwTlavO-5" value="Mitarbeiter (Personalnummer, Vorname, Nachname, Stelle (FK))" style="whiteSpace=wrap;html=1;align=center;" vertex="1" parent="oqvTlS9bVFuxblwTlavO-1">
          <mxGeometry x="40" y="150" width="170" height="60" as="geometry" />
        </mxCell>
        <mxCell id="oqvTlS9bVFuxblwTlavO-7" value="Organisationseinheit" style="rounded=0;whiteSpace=wrap;html=1;" vertex="1" parent="oqvTlS9bVFuxblwTlavO-1">
          <mxGeometry x="30" y="230" width="120" height="40" as="geometry" />
        </mxCell>
        <mxCell id="oqvTlS9bVFuxblwTlavO-8" value="Division (Hauptsitz)" style="rounded=0;whiteSpace=wrap;html=1;" vertex="1" parent="oqvTlS9bVFuxblwTlavO-1">
          <mxGeometry x="465" y="160" width="120" height="40" as="geometry" />
        </mxCell>
        <mxCell id="oqvTlS9bVFuxblwTlavO-9" value="Sparte" style="rounded=0;whiteSpace=wrap;html=1;" vertex="1" parent="oqvTlS9bVFuxblwTlavO-1">
          <mxGeometry x="460" y="240" width="130" height="40" as="geometry" />
        </mxCell>
        <mxCell id="oqvTlS9bVFuxblwTlavO-10" value="Pipeline" style="rounded=0;whiteSpace=wrap;html=1;" vertex="1" parent="oqvTlS9bVFuxblwTlavO-1">
          <mxGeometry x="660" y="160" width="100" height="40" as="geometry" />
        </mxCell>
        <mxCell id="oqvTlS9bVFuxblwTlavO-11" value="Marktsegment" style="rounded=0;whiteSpace=wrap;html=1;" vertex="1" parent="oqvTlS9bVFuxblwTlavO-1">
          <mxGeometry x="460" y="30" width="140" height="30" as="geometry" />
        </mxCell>
        <mxCell id="oqvTlS9bVFuxblwTlavO-12" value="Patent&lt;br&gt;(Ablaufdatum)" style="rounded=0;whiteSpace=wrap;html=1;" vertex="1" parent="oqvTlS9bVFuxblwTlavO-1">
          <mxGeometry x="140" y="360" width="120" height="60" as="geometry" />
        </mxCell>
      </root>
    </mxGraphModel>
  </diagram>
</mxfile>
